<svg width="27" height="30" viewBox="0 0 27 30" fill="none" xmlns="http://www.w3.org/2000/svg">
<g clip-path="url(#clip0_1_263)">
<g clip-path="url(#clip1_1_263)">
<path d="M5.51484 18.4629C5.51484 19.9805 4.275 21.2203 2.75742 21.2203C1.23984 21.2203 0 19.9805 0 18.4629C0 16.9453 1.23984 15.7055 2.75742 15.7055H5.51484V18.4629ZM6.90469 18.4629C6.90469 16.9453 8.14453 15.7055 9.66211 15.7055C11.1797 15.7055 12.4195 16.9453 12.4195 18.4629V25.3676C12.4195 26.8852 11.1797 28.125 9.66211 28.125C8.14453 28.125 6.90469 26.8852 6.90469 25.3676V18.4629ZM9.66211 7.38984C8.14453 7.38984 6.90469 6.15 6.90469 4.63242C6.90469 3.11484 8.14453 1.875 9.66211 1.875C11.1797 1.875 12.4195 3.11484 12.4195 4.63242V7.38984H9.66211ZM9.66211 8.77969C11.1797 8.77969 12.4195 10.0195 12.4195 11.5371C12.4195 13.0547 11.1797 14.2945 9.66211 14.2945H2.75742C1.23984 14.2945 0 13.0547 0 11.5371C0 10.0195 1.23984 8.77969 2.75742 8.77969H9.66211ZM20.7352 11.5371C20.7352 10.0195 21.975 8.77969 23.4926 8.77969C25.0102 8.77969 26.25 10.0195 26.25 11.5371C26.25 13.0547 25.0102 14.2945 23.4926 14.2945H20.7352V11.5371ZM19.3453 11.5371C19.3453 13.0547 18.1055 14.2945 16.5879 14.2945C15.0703 14.2945 13.8305 13.0547 13.8305 11.5371V4.63242C13.8305 3.11484 15.0703 1.875 16.5879 1.875C18.1055 1.875 19.3453 3.11484 19.3453 4.63242V11.5371ZM16.5879 22.6102C18.1055 22.6102 19.3453 23.85 19.3453 25.3676C19.3453 26.8852 18.1055 28.125 16.5879 28.125C15.0703 28.125 13.8305 26.8852 13.8305 25.3676V22.6102H16.5879ZM16.5879 21.2203C15.0703 21.2203 13.8305 19.9805 13.8305 18.4629C13.8305 16.9453 15.0703 15.7055 16.5879 15.7055H23.4926C25.0102 15.7055 26.25 16.9453 26.25 18.4629C26.25 19.9805 25.0102 21.2203 23.4926 21.2203H16.5879Z" fill="#4A154B"/>
</g>
</g>
<defs>
<clipPath id="clip0_1_263">
<rect width="26.25" height="30" fill="white"/>
</clipPath>
<clipPath id="clip1_1_263">
<path d="M0 0H26.25V30H0V0Z" fill="white"/>
</clipPath>
</defs>
</svg>
